<?xml version="1.0" standalone="no"?>
<!DOCTYPE svg PUBLIC "-//W3C//DTD SVG 20010904//EN"
 "http://www.w3.org/TR/2001/REC-SVG-20010904/DTD/svg10.dtd">
<svg version="1.0" xmlns="http://www.w3.org/2000/svg"
 width="383.000000pt" height="157.000000pt" viewBox="0 0 383.000000 157.000000"
 preserveAspectRatio="xMidYMid meet">

<g transform="translate(0.000000,157.000000) scale(0.100000,-0.100000)"
fill="#000000" stroke="none">
<path d="M910 1494 c0 -42 10 -127 21 -190 l22 -114 73 0 c41 0 74 1 74 3 0 1
7 40 15 87 8 47 15 131 15 188 l0 102 -110 0 -110 0 0 -76z"/>
<path d="M1250 1468 c0 -56 8 -141 17 -190 l17 -88 73 0 c40 0 73 1 73 3 0 1
7 40 15 87 8 47 15 131 15 188 l0 102 -105 0 -105 0 0 -102z"/>
<path d="M107 1279 c-49 -4 -91 -10 -94 -12 -3 -3 -2 -39 2 -81 l7 -75 32 7
c17 4 96 7 176 7 133 0 149 -2 193 -24 59 -29 93 -77 107 -150 5 -30 10 -145
10 -257 l0 -204 101 0 101 0 -4 258 c-6 315 -12 339 -97 423 -106 104 -251
134 -534 108z"/>
<path d="M1636 1283 l-39 -4 7 -52 c3 -29 6 -62 6 -74 0 -21 5 -23 56 -23 31
0 71 -7 90 -16 58 -28 64 -50 64 -259 l0 -185 -105 0 -105 0 0 -90 0 -90 206
0 205 0 -3 313 -3 312 -31 55 c-44 77 -106 109 -224 114 -47 2 -102 2 -124 -1z"/>
<path d="M3435 1281 c-61 -16 -106 -45 -162 -105 -31 -33 -59 -61 -61 -61 -3
0 -15 34 -26 75 l-22 75 -91 3 -92 3 66 -188 c62 -179 64 -190 54 -233 -21
-83 -81 -345 -81 -352 0 -5 47 -8 105 -8 100 0 105 1 110 23 2 12 16 88 30
169 30 173 59 286 85 338 46 89 133 118 189 62 37 -36 51 -117 51 -285 l0
-127 -95 0 -95 0 0 -90 0 -90 196 0 196 0 -5 253 c-5 295 -17 351 -92 452 -48
65 -178 108 -260 86z"/>
<path d="M2200 1266 c0 -3 29 -157 65 -344 36 -186 65 -343 65 -349 0 -5 -45
-18 -101 -28 -92 -17 -100 -20 -95 -39 2 -12 8 -43 12 -71 3 -27 8 -53 10 -56
2 -4 52 3 111 16 319 67 465 146 527 286 36 78 45 142 54 387 l7 202 -96 0
-96 0 -7 -52 c-3 -29 -6 -120 -6 -203 0 -160 -12 -260 -36 -306 -15 -31 -90
-86 -101 -76 -3 4 -27 134 -54 289 -27 156 -51 298 -54 316 l-6 32 -99 0 c-55
0 -100 -2 -100 -4z"/>
<path d="M20 700 l0 -210 100 0 100 0 0 210 0 210 -100 0 -100 0 0 -210z"/>
<path d="M1170 240 l0 -50 50 0 c46 0 50 -2 50 -23 0 -13 -7 -32 -15 -43 -8
-10 -15 -36 -15 -56 0 -31 3 -38 20 -38 15 0 20 7 20 28 0 15 7 36 15 46 9 12
15 42 15 73 l0 53 -50 0 c-49 0 -50 1 -50 30 0 23 -4 30 -20 30 -17 0 -20 -7
-20 -50z"/>
<path d="M1910 240 l0 -50 50 0 c46 0 50 -2 50 -23 0 -13 -7 -32 -15 -43 -8
-10 -15 -36 -15 -56 0 -31 3 -38 20 -38 15 0 20 7 20 28 0 15 7 36 15 46 9 12
15 42 15 73 l0 53 -50 0 c-49 0 -50 1 -50 30 0 23 -4 30 -20 30 -17 0 -20 -7
-20 -50z"/>
<path d="M40 211 c0 -19 6 -21 49 -21 64 0 81 -21 81 -102 0 -51 2 -58 20 -58
18 0 20 7 20 73 0 96 -20 119 -110 125 -56 4 -60 3 -60 -17z"/>
<path d="M260 225 c0 -3 8 -17 17 -31 14 -22 15 -29 3 -47 -8 -12 -17 -43 -20
-69 -6 -45 -5 -48 17 -48 20 0 23 5 23 38 0 67 14 70 51 14 24 -37 41 -52 57
-52 28 0 28 3 -2 47 -25 36 -25 36 -5 61 26 34 26 92 0 92 -16 0 -20 -8 -23
-37 -4 -50 -19 -51 -46 -3 -17 30 -29 40 -47 40 -14 0 -25 -2 -25 -5z"/>
<path d="M473 224 c-29 -13 -13 -34 25 -34 53 0 62 -13 62 -92 0 -66 1 -68 25
-68 24 0 25 2 25 69 0 58 -4 74 -23 96 -22 26 -85 42 -114 29z"/>
<path d="M660 130 l0 -100 25 0 25 0 0 100 0 100 -25 0 -25 0 0 -100z"/>
<path d="M760 211 c0 -19 6 -21 49 -21 64 0 81 -21 81 -102 0 -51 2 -58 20
-58 18 0 20 7 20 73 0 96 -20 119 -110 125 -56 4 -60 3 -60 -17z"/>
<path d="M980 130 l0 -100 25 0 25 0 0 100 0 100 -25 0 -25 0 0 -100z"/>
<path d="M1360 130 l0 -100 25 0 25 0 0 100 0 100 -25 0 -25 0 0 -100z"/>
<path d="M1460 211 c0 -19 6 -21 49 -21 64 0 81 -21 81 -102 0 -51 2 -58 20
-58 18 0 20 7 20 73 0 96 -20 119 -110 125 -56 4 -60 3 -60 -17z"/>
<path d="M1680 170 c0 -57 1 -60 25 -60 24 0 25 3 25 60 0 57 -1 60 -25 60
-24 0 -25 -3 -25 -60z"/>
<path d="M1770 211 c0 -14 6 -21 20 -21 25 0 40 -29 40 -79 0 -39 -2 -41 -30
-41 -23 0 -30 -4 -30 -20 0 -17 7 -20 50 -20 l50 0 0 78 c0 91 -10 110 -63
119 -33 5 -37 3 -37 -16z"/>
<path d="M2203 224 c-29 -13 -13 -34 25 -34 53 0 62 -13 62 -92 0 -66 1 -68
25 -68 24 0 25 2 25 69 0 58 -4 74 -23 96 -22 26 -85 42 -114 29z"/>
<path d="M2380 210 c0 -15 7 -20 25 -20 23 0 24 -2 15 -20 -7 -13 -8 -43 -4
-80 6 -51 10 -60 26 -60 19 0 20 5 13 68 -6 57 -4 72 10 85 9 10 21 17 26 17
5 0 9 7 9 15 0 12 -13 15 -60 15 -53 0 -60 -2 -60 -20z"/>
<path d="M2540 213 c1 -10 7 -49 14 -88 15 -77 14 -85 -15 -85 -10 0 -19 -7
-19 -15 0 -36 127 2 150 45 6 11 14 52 17 91 6 64 5 69 -14 69 -22 0 -33 -37
-33 -111 0 -34 -23 -70 -33 -52 -2 4 -7 31 -11 58 -13 94 -17 105 -37 105 -12
0 -19 -7 -19 -17z"/>
<path d="M2858 223 c-19 -3 -28 -10 -28 -23 0 -13 5 -17 20 -13 18 5 20 0 20
-56 0 -54 -2 -61 -20 -61 -11 0 -20 -6 -20 -14 0 -20 35 -29 60 -16 17 9 20
21 20 80 l0 70 30 0 c37 0 50 -27 50 -106 0 -47 2 -54 20 -54 18 0 20 7 20 74
0 97 -14 116 -90 121 -30 2 -67 1 -82 -2z"/>
<path d="M3080 221 c-20 -13 -4 -29 35 -33 20 -2 34 -12 45 -30 13 -25 13 -31
0 -55 -11 -20 -26 -30 -50 -33 -39 -6 -50 -25 -20 -35 29 -9 71 2 98 27 32 31
31 106 -2 137 -26 25 -84 37 -106 22z"/>
<path d="M3263 224 c-29 -13 -13 -34 25 -34 53 0 62 -13 62 -92 0 -66 1 -68
25 -68 24 0 25 2 25 69 0 58 -4 74 -23 96 -22 26 -85 42 -114 29z"/>
<path d="M3450 213 c1 -10 7 -49 14 -88 15 -77 14 -85 -15 -85 -10 0 -19 -7
-19 -15 0 -36 127 2 150 45 6 11 14 52 17 91 6 64 5 69 -14 69 -22 0 -33 -37
-33 -111 0 -34 -23 -70 -33 -52 -2 4 -7 31 -11 58 -13 94 -17 105 -37 105 -12
0 -19 -7 -19 -17z"/>
<path d="M3646 203 c4 -16 10 -38 15 -49 4 -12 3 -39 -2 -60 -13 -59 -12 -66
13 -62 19 2 24 11 30 52 10 75 27 108 52 104 18 -3 21 -11 24 -60 3 -53 1 -58
-18 -58 -13 0 -20 -7 -20 -20 0 -17 7 -20 46 -20 l47 0 -5 77 c-5 68 -8 79
-32 100 -33 28 -46 29 -80 2 l-27 -21 -6 21 c-3 12 -13 21 -24 21 -16 0 -18
-5 -13 -27z"/>
<path d="M40 80 c0 -47 2 -50 25 -50 23 0 25 3 25 50 0 47 -2 50 -25 50 -23 0
-25 -3 -25 -50z"/>
<path d="M760 80 c0 -47 2 -50 25 -50 23 0 25 3 25 50 0 47 -2 50 -25 50 -23
0 -25 -3 -25 -50z"/>
<path d="M1460 80 c0 -47 2 -50 25 -50 23 0 25 3 25 50 0 47 -2 50 -25 50 -23
0 -25 -3 -25 -50z"/>
</g>
</svg>
